# xmcd CD database file
#
# Track frame offsets:
#	150
#	10350
#	27156
#	41250
#	51525
#	66826
#	91725
#	112050
#	128775
#	139200
#
# Disc length: 2071 seconds
#
# Revision: 0
# Processed by: cddbd v1.5.2PL0 Copyright (c) Steve Scherf et al.
# Submitted via: CDex 1.51
#
DISCID=8808150a
DTITLE=32/20 Blues Band - Yeah Battery
DYEAR=2005
DGENRE=Blues
TTITLE0=What I Wanna Do
TTITLE1=Ain't There Somebody Gone
TTITLE2=Skunks Of War
TTITLE3=Yeah Battery
TTITLE4=Homegrown
TTITLE5=Nice and Tall
TTITLE6=Cradle Rock
TTITLE7=Sixstring
TTITLE8=Beer Drinkin' Granny
TTITLE9=Come On
EXTD=YEAR: 2005
EXTT0=
EXTT1=
EXTT2=
EXTT3=
EXTT4=
EXTT5=
EXTT6=
EXTT7=
EXTT8=
EXTT9=
PLAYORDER=
